#!OML:ASF H:\Punching\Project 1\Capture day 1\Session 1\female.ASF
:FULLY-SPECIFIED
:DEGREES
2725
root 1.34416 15.3769 3.72429 -26.2856 13.4826 -11.7773
lowerback 13.007 -3.28979 -4.81158
upperback 2.89313 -4.65252 8.30487
thorax -3.09302 -2.32708 12.49
lowerneck -8.94308 0.15124 10.084
upperneck 47.5786 -1.72995 -2.32786
head 20.1805 1.00093 -3.30461
rclavicle 7.85199e-014 -6.52014e-014
rhumerus -7.22724 3.62482 -51.9742
rradius 129.595
rwrist -15.2034
rhand -33.736 6.61517
rfingers 7.12502
rthumb -6.92473 -23.2516
lclavicle 7.85199e-014 -6.52014e-014
lhumerus 11.9409 -29.9476 75.743
lradius 130.286
lwrist -2.37049
lhand -31.5014 1.1311
lfingers 7.12502
lthumb -4.76726 31.0575
rfemur -109.687 -16.0126 20.7113
rtibia 120.799
rfoot 0.971486 5.14743
rtoes -20.4132
lfemur 11.9045 -12.0184 -20.7061
ltibia 30.336
lfoot -13.3832 4.61307
ltoes 16.2161
2726
root 1.3421 15.3981 3.80631 -26.8372 13.6567 -12.4778
lowerback 12.9985 -3.32285 -4.58735
upperback 2.95563 -4.65488 8.62009
thorax -3.01011 -2.33727 12.7167
lowerneck -8.75595 -0.0519277 10.0429
upperneck 47.8143 -2.08007 -2.21246
head 20.2639 0.889085 -3.30187
rclavicle -1.51076e-014 -3.81667e-014
rhumerus -7.62327 3.14842 -51.5919
rradius 129.688
rwrist -15.1175
rhand -33.6231 6.47453
rfingers 7.12502
rthumb -6.81571 -23.3958
lclavicle -1.51076e-014 -3.81667e-014
lhumerus 11.9971 -30.419 76.6848
lradius 130.118
lwrist -2.35051
lhand -31.5043 1.0382
lfingers 7.12502
lthumb -4.77009 30.9645
rfemur -112.053 -15.708 20.6836
rtibia 118.224
rfoot 1.7597 4.80996
rtoes -21.7576
lfemur 12.5063 -11.5213 -19.875
ltibia 30.3876
lfoot -13.5478 4.30511
ltoes 16.8256
2727
root 1.34062 15.4214 3.8844 -27.2125 13.8661 -13.1531
lowerback 12.8397 -3.36937 -4.37328
upperback 2.9592 -4.67571 8.92061
thorax -2.90391 -2.35565 12.9239
lowerneck -8.5612 -0.251571 10.0181
upperneck 48.0522 -2.43506 -2.08368
head 20.3496 0.78066 -3.29509
rclavicle -4.33351e-014 2.38542e-014
rhumerus -8.07034 2.68147 -51.2759
rradius 129.799
rwrist -14.9282
rhand -33.5061 6.31784
rfingers 7.12502
rthumb -6.70284 -23.5561
lclavicle -4.33351e-014 2.38542e-014
lhumerus 11.989 -30.8795 77.6119
lradius 129.996
lwrist -2.33769
lhand -31.5114 0.943873
lfingers 7.12502
lthumb -4.77691 30.87
rfemur -114.268 -15.4935 20.5069
rtibia 115.254
rfoot 2.54244 4.47332
rtoes -23.0925
lfemur 12.8533 -11.0888 -19.0302
ltibia 30.5188
lfoot -13.6805 3.95742
ltoes 17.1555
2728
root 1.33983 15.4461 3.95732 -27.4586 14.1112 -13.8187
lowerback 12.5795 -3.43132 -4.15993
upperback 2.92252 -4.71798 9.21038
thorax -2.78069 -2.38414 13.1143
lowerneck -8.36629 -0.44273 10.0086
upperneck 48.2849 -2.78654 -1.94335
head 20.4352 0.678054 -3.28341
rclavicle -2.127e-014 -6.36111e-014
rhumerus -8.55293 2.22883 -51.0295
rradius 129.93
rwrist -14.6454
rhand -33.411 6.15461
rfingers 7.12502
rthumb -6.61102 -23.7222
lclavicle -2.127e-014 -6.36111e-014
lhumerus 11.9309 -31.3243 78.5104
lradius 129.925
lwrist -2.33947
lhand -31.5207 0.882437
lfingers 7.12502
lthumb -4.78594 30.8084
rfemur -116.261 -15.3889 20.1764
rtibia 111.882
rfoot 3.34132 4.00787
rtoes -24.1905
lfemur 12.9833 -10.7389 -18.1752
ltibia 30.7311
lfoot -13.7718 3.5503
ltoes 17.2464
2729
root 1.33996 15.4704 4.02463 -27.6214 14.4096 -14.4734
lowerback 12.2652 -3.51163 -3.94784
upperback 2.86227 -4.78711 9.48152
thorax -2.64754 -2.42573 13.2827
lowerneck -8.17556 -0.622309 10.0181
upperneck 48.5053 -3.13171 -1.78934
head 20.5171 0.582806 -3.26578
rclavicle 3.79679e-014 -6.83819e-014
rhumerus -9.06193 1.78711 -50.8584
rradius 130.063
rwrist -14.2772
rhand -33.3704 6.06461
rfingers 7.12502
rthumb -6.5718 -23.8134
lclavicle 3.79679e-014 -6.83819e-014
lhumerus 11.8274 -31.7586 79.3692
lradius 129.894
lwrist -2.3603
lhand -31.539 0.844172
lfingers 7.12502
lthumb -4.8036 30.7697
rfemur -117.963 -15.4304 19.674
rtibia 108.108
rfoot 4.19763 3.33513
rtoes -25.1851
lfemur 12.9348 -10.4824 -17.3342
ltibia 31.0239
lfoot -13.8099 3.07279
ltoes 17.135
2730
root 1.3405 15.4924 4.08548 -27.8076 14.728 -15.0984
lowerback 12.0232 -3.59119 -3.75017
upperback 2.81809 -4.85974 9.72675
thorax -2.53668 -2.46822 13.4367
lowerneck -7.99802 -0.787153 10.049
upperneck 48.7093 -3.46826 -1.61947
head 20.5953 0.496196 -3.24123
rclavicle 4.31363e-014 -2.54444e-014
rhumerus -9.58204 1.34855 -50.763
rradius 130.195
rwrist -13.8677
rhand -33.3935 6.06189
rfingers 7.12502
rthumb -6.5941 -23.8155
lclavicle 4.31363e-014 -2.54444e-014
lhumerus 11.6979 -32.1888 80.1725
lradius 129.906
lwrist -2.3967
lhand -31.5572 0.867234
lfingers 7.12502
lthumb -4.82121 30.7924
rfemur -119.237 -15.5835 18.9756
rtibia 103.931
rfoot 5.12762 2.41908
rtoes -26.2086
lfemur 12.8362 -10.2957 -16.5406
ltibia 31.3838
lfoot -13.7928 2.53933
ltoes 16.8707
2731
root 1.34161 15.5111 4.1397 -28.0392 15.0542 -15.6809
lowerback 11.8744 -3.66596 -3.56699
upperback 2.80468 -4.93026 9.93952
thorax -2.4462 -2.50942 13.5691
lowerneck -7.83268 -0.934326 10.1025
upperneck 48.8924 -3.79282 -1.43026
head 20.6665 0.419768 -3.2075
rclavicle -5.02925e-014 1.27222e-014
rhumerus -10.0965 0.903744 -50.747
rradius 130.316
rwrist -13.4705
rhand -33.483 6.19543
rfingers 7.12502
rthumb -6.68049 -23.6792
lclavicle -5.02925e-014 1.27222e-014
lhumerus 11.5456 -32.6189 80.9118
lradius 129.951
lwrist -2.44138
lhand -31.5729 0.911675
lfingers 7.12502
lthumb -4.83634 30.8365
rfemur -120.055 -15.8353 18.0832
rtibia 99.3589
rfoot 6.15729 1.26007
rtoes -27.2529
lfemur 12.7274 -10.1735 -15.8163
ltibia 31.797
lfoot -13.7218 1.96968
ltoes 16.5046
2732
root 1.34346 15.5256 4.18736 -28.3355 15.3734 -16.2048
lowerback 11.8487 -3.72959 -3.40124
upperback 2.83473 -4.98986 10.1151
thorax -2.3816 -2.54499 13.6776
lowerneck -7.69661 -1.06205 10.1829
upperneck 49.0603 -4.10395 -1.22814
head 20.7399 0.354586 -3.16929
rclavicle -2.66371e-014 7.63333e-014
rhumerus -10.5802 0.446697 -50.8113
rradius 130.432
rwrist -13.1558
rhand -33.5906 6.3913
rfingers 7.12502
rthumb -6.78439 -23.48
lclavicle -2.66371e-014 7.63333e-014
lhumerus 11.3872 -33.0462 81.5764
lradius 130.019
lwrist -2.46825
lhand -31.5778 0.944523
lfingers 7.12502
lthumb -4.84107 30.8692
rfemur -120.391 -16.1646 16.9948
rtibia 94.4038
rfoot 7.25442 -0.168006
rtoes -28.0327
lfemur 12.6562 -10.1072 -15.1856
ltibia 32.2351
lfoot -13.6015 1.39635
ltoes 16.0823
2733
root 1.34611 15.5356 4.22917 -28.6878 15.6723 -16.639
lowerback 11.9331 -3.77642 -3.27294
upperback 2.91662 -5.03379 10.2459
thorax -2.32687 -2.57375 13.7633
lowerneck -7.58601 -1.16988 10.2874
upperneck 49.2084 -4.39868 -1.01476
head 20.8106 0.300504 -3.12634
rclavicle 2.3059e-014 3.97569e-014
rhumerus -11.0052 -0.0200553 -50.9542
rradius 130.54
rwrist -12.9674
rhand -33.6917 6.63393
rfingers 7.12502
rthumb -6.88193 -23.2342
lclavicle 2.3059e-014 3.97569e-014
lhumerus 11.2278 -33.4659 82.1565
lradius 130.11
lwrist -2.45831
lhand -31.5759 0.968649
lfingers 7.12502
lthumb -4.83922 30.8934
rfemur -120.236 -16.5466 15.669
rtibia 89.075
rfoot 8.32073 -1.88348
rtoes -28.1539
lfemur 12.6541 -10.0763 -14.6815
ltibia 32.667
lfoot -13.4378 0.851705
ltoes 15.6213
2734
root 1.34955 15.5415 4.26556 -29.0848 15.9426 -16.9627
lowerback 12.1124 -3.80097 -3.1967
upperback 3.0523 -5.0568 10.3277
thorax -2.27194 -2.59368 13.8277
lowerneck -7.50198 -1.25852 10.4182
upperneck 49.3463 -4.67561 -0.798644
head 20.8859 0.258129 -3.08373
rclavicle -4.79071e-014 9.54166e-015
rhumerus -11.3598 -0.491339 -51.1713
rradius 130.65
rwrist -12.9382
rhand -33.7527 6.81336
rfingers 7.12502
rthumb -6.94085 -23.0528
lclavicle -4.79071e-014 9.54166e-015
lhumerus 11.0751 -33.8752 82.6467
lradius 130.218
lwrist -2.39025
lhand -31.5579 0.947546
lfingers 7.12502
lthumb -4.82187 30.8727
rfemur -119.6 -16.9557 14.0774
rtibia 83.4049
rfoot 9.21064 -3.7478
rtoes -27.7386
lfemur 12.7517 -10.0635 -14.326
ltibia 33.0492
lfoot -13.2397 0.365096
ltoes 15.1555
2735
root 1.35384 15.5441 4.29725 -29.4944 16.186 -17.1456
lowerback 12.3367 -3.79958 -3.19923
upperback 3.24372 -5.05929 10.3536
thorax -2.18535 -2.60697 13.873
lowerneck -7.44305 -1.32826 10.5755
upperneck 49.4702 -4.93382 -0.581956
head 20.9617 0.227174 -3.04241
rclavicle -6.69904e-014 9.70069e-014
rhumerus -11.6233 -0.958132 -51.4644
rradius 130.75
rwrist -13.0509
rhand -33.7685 6.92254
rfingers 7.12502
rthumb -6.95611 -22.9432
lclavicle -6.69904e-014 9.70069e-014
lhumerus 10.9374 -34.2685 83.0377
lradius 130.336
lwrist -2.2553
lhand -31.5254 0.859008
lfingers 7.12502
lthumb -4.79047 30.7849
rfemur -118.499 -17.3784 12.1522
rtibia 77.436
rfoot 9.89686 -5.64189
rtoes -27.0063
lfemur 12.9576 -10.0461 -14.1485
ltibia 33.3422
lfoot -13.0213 -0.0342377
ltoes 14.7359
2736
root 1.35908 15.5451 4.32405 -29.8866 16.4074 -17.1886
lowerback 12.5584 -3.77643 -3.28485
upperback 3.48025 -5.0484 10.3272
thorax -2.04957 -2.61809 13.9023
lowerneck -7.39031 -1.38077 10.7489
upperneck 49.5795 -5.1692 -0.36529
head 21.0321 0.206776 -2.99959
rclavicle 5.10877e-014 -7.95139e-015
rhumerus -11.7966 -1.39694 -51.8182
rradius 130.833
rwrist -13.272
rhand -33.757 6.93236
rfingers 7.12502
rthumb -6.94496 -22.9337
lclavicle 5.10877e-014 -7.95139e-015
lhumerus 10.814 -34.631 83.3332
lradius 130.52
lwrist -1.95282
lhand -31.3652 0.81972
lfingers 7.12502
lthumb -4.63578 30.749
rfemur -116.971 -17.8084 9.84324
rtibia 71.2565
rfoot 10.2674 -7.4719
rtoes -26.133
lfemur 13.264 -10.0069 -14.1451
ltibia 33.5082
lfoot -12.7939 -0.324259
ltoes 14.3684
